<?xml version="1.0" encoding="UTF-8"?>
<svg xmlns="http://www.w3.org/2000/svg" width="1024" height="1024" viewBox="0 0 1024 1024" role="img" aria-labelledby="commercial-networking-title commercial-networking-desc">
  <title id="commercial-networking-title">Commercial Networking</title>
  <desc id="commercial-networking-desc">Structured enterprise connectivity and backbone pathways.</desc>
  <rect width="1024" height="1024" fill="#f3eede"/>
  <g id="commercial-networking" fill="none">
<path d="M 174 174 H 328" fill="none" stroke="#d6cdb8" stroke-width="48" stroke-linecap="round" stroke-linejoin="round" opacity="0.7"/>
<path d="M 174 174 V 328" fill="none" stroke="#d6cdb8" stroke-width="48" stroke-linecap="round" stroke-linejoin="round" opacity="0.7"/>
<path d="M 850 174 H 696" fill="none" stroke="#d6cdb8" stroke-width="48" stroke-linecap="round" stroke-linejoin="round" opacity="0.7"/>
<path d="M 850 174 V 328" fill="none" stroke="#d6cdb8" stroke-width="48" stroke-linecap="round" stroke-linejoin="round" opacity="0.7"/>
<path d="M 174 850 H 328" fill="none" stroke="#d6cdb8" stroke-width="48" stroke-linecap="round" stroke-linejoin="round" opacity="0.7"/>
<path d="M 174 850 V 696" fill="none" stroke="#d6cdb8" stroke-width="48" stroke-linecap="round" stroke-linejoin="round" opacity="0.7"/>
<path d="M 850 850 H 696" fill="none" stroke="#d6cdb8" stroke-width="48" stroke-linecap="round" stroke-linejoin="round" opacity="0.7"/>
<path d="M 850 850 V 696" fill="none" stroke="#d6cdb8" stroke-width="48" stroke-linecap="round" stroke-linejoin="round" opacity="0.7"/>
<rect x="256" y="266" width="170" height="492" rx="34" ry="34" fill="none" stroke="#15140e" stroke-width="48"/>
<line x1="306" y1="386" x2="376" y2="386" stroke="#4a4636" stroke-width="30" stroke-linecap="round"/>
<line x1="306" y1="512" x2="376" y2="512" stroke="#4a4636" stroke-width="30" stroke-linecap="round"/>
<line x1="306" y1="638" x2="376" y2="638" stroke="#4a4636" stroke-width="30" stroke-linecap="round"/>
<path d="M 426 386 H 588 V 270 H 778" fill="none" stroke="#1f8f7d" stroke-width="48" stroke-linecap="round" stroke-linejoin="round"/>
<path d="M 426 512 H 778" fill="none" stroke="#1f8f7d" stroke-width="48" stroke-linecap="round" stroke-linejoin="round"/>
<path d="M 426 638 H 588 V 754 H 778" fill="none" stroke="#1f8f7d" stroke-width="48" stroke-linecap="round" stroke-linejoin="round"/>
<path d="M 588 386 V 638" fill="none" stroke="#d6cdb8" stroke-width="48" stroke-linecap="round" stroke-linejoin="round" opacity="0.8"/>
<rect x="778" y="218" width="92" height="104" rx="24" ry="24" fill="none" stroke="#15140e" stroke-width="40"/>
<rect x="778" y="460" width="92" height="104" rx="24" ry="24" fill="none" stroke="#15140e" stroke-width="40"/>
<rect x="778" y="702" width="92" height="104" rx="24" ry="24" fill="none" stroke="#15140e" stroke-width="40"/>
<circle cx="588" cy="386" r="20" fill="#1f8f7d"/>
<circle cx="588" cy="512" r="20" fill="#1f8f7d"/>
<circle cx="588" cy="638" r="20" fill="#1f8f7d"/>
  </g>
</svg>
